solid 
 facet normal  0.000000e+00 -1.000000e+00  0.000000e+00
   outer loop
     vertex  1.125000e-01 -2.790541e-01  4.500000e-01
     vertex  3.750000e-01 -2.790541e-01  7.500000e-01
     vertex  1.125000e-01 -2.790541e-01  7.500000e-01
   endloop
 endfacet
 facet normal  0.000000e+00 -1.000000e+00  0.000000e+00
   outer loop
     vertex  3.750000e-01 -2.790541e-01 -1.708714e-17
     vertex  1.125000e-01 -2.790541e-01  4.500000e-01
     vertex  1.125000e-01 -2.790541e-01 -1.708714e-17
   endloop
 endfacet
 facet normal  0.000000e+00 -1.000000e+00  0.000000e+00
   outer loop
     vertex  3.750000e-01 -2.790541e-01 -1.708714e-17
     vertex  3.750000e-01 -2.790541e-01  7.500000e-01
     vertex  1.125000e-01 -2.790541e-01  4.500000e-01
   endloop
 endfacet
 facet normal -0.000000e+00 -1.000000e+00  0.000000e+00
   outer loop
     vertex  1.125000e-01 -2.790541e-01  4.500000e-01
     vertex  1.500000e-02 -2.790541e-01  4.500000e-01
     vertex  1.500000e-02 -2.790541e-01  3.600000e-01
   endloop
 endfacet
 facet normal  0.000000e+00 -1.000000e+00  0.000000e+00
   outer loop
     vertex  1.125000e-01 -2.790541e-01 -1.708714e-17
     vertex  1.500000e-02 -2.790541e-01  3.600000e-01
     vertex  1.500000e-02 -2.790541e-01 -1.708714e-17
   endloop
 endfacet
 facet normal  0.000000e+00 -1.000000e+00  0.000000e+00
   outer loop
     vertex  1.125000e-01 -2.790541e-01 -1.708714e-17
     vertex  1.125000e-01 -2.790541e-01  4.500000e-01
     vertex  1.500000e-02 -2.790541e-01  3.600000e-01
   endloop
 endfacet
 facet normal -1.000000e+00  1.004487e-15 -3.130400e-31
   outer loop
     vertex  1.125000e-01 -2.790541e-01  4.500000e-01
     vertex  1.125000e-01 -1.655409e-02  7.500000e-01
     vertex  1.125000e-01 -1.655409e-02  4.500000e-01
   endloop
 endfacet
 facet normal -1.000000e+00  9.516197e-16  4.625929e-17
   outer loop
     vertex  1.125000e-01 -2.790541e-01  4.500000e-01
     vertex  1.125000e-01 -2.790541e-01  7.500000e-01
     vertex  1.125000e-01 -1.655409e-02  7.500000e-01
   endloop
 endfacet
 facet normal  1.000000e+00 -9.868649e-16  0.000000e+00
   outer loop
     vertex  3.750000e-01  2.834459e-01  1.735606e-17
     vertex  3.750000e-01 -2.790541e-01  7.500000e-01
     vertex  3.750000e-01 -2.790541e-01 -1.708714e-17
   endloop
 endfacet
 facet normal  1.000000e+00 -9.868649e-16  0.000000e+00
   outer loop
     vertex  3.750000e-01  2.834459e-01  1.735606e-17
     vertex  3.750000e-01  2.834459e-01  7.500000e-01
     vertex  3.750000e-01 -2.790541e-01  7.500000e-01
   endloop
 endfacet
 facet normal  0.000000e+00  6.123234e-17 -1.000000e+00
   outer loop
     vertex  1.125000e-01 -1.655409e-02 -1.013646e-18
     vertex  3.750000e-01 -2.790541e-01 -1.708714e-17
     vertex  1.125000e-01 -2.790541e-01 -1.708714e-17
   endloop
 endfacet
 facet normal  1.173900e-32  6.123234e-17 -1.000000e+00
   outer loop
     vertex  3.750000e-01  2.834459e-01  1.735606e-17
     vertex  1.125000e-01 -1.655409e-02 -1.013646e-18
     vertex  1.125000e-01  2.834459e-01  1.735606e-17
   endloop
 endfacet
 facet normal  0.000000e+00  6.123234e-17 -1.000000e+00
   outer loop
     vertex  3.750000e-01  2.834459e-01  1.735606e-17
     vertex  3.750000e-01 -2.790541e-01 -1.708714e-17
     vertex  1.125000e-01 -1.655409e-02 -1.013646e-18
   endloop
 endfacet
 facet normal  0.000000e+00  0.000000e+00  1.000000e+00
   outer loop
     vertex  1.125000e-01 -1.655409e-02  7.500000e-01
     vertex  1.125000e-01 -2.790541e-01  7.500000e-01
     vertex  3.750000e-01 -2.790541e-01  7.500000e-01
   endloop
 endfacet
 facet normal  0.000000e+00  0.000000e+00  1.000000e+00
   outer loop
     vertex  3.750000e-01  2.834459e-01  7.500000e-01
     vertex  1.125000e-01  2.834459e-01  7.500000e-01
     vertex  1.125000e-01 -1.655409e-02  7.500000e-01
   endloop
 endfacet
 facet normal  0.000000e+00  0.000000e+00  1.000000e+00
   outer loop
     vertex  3.750000e-01  2.834459e-01  7.500000e-01
     vertex  1.125000e-01 -1.655409e-02  7.500000e-01
     vertex  3.750000e-01 -2.790541e-01  7.500000e-01
   endloop
 endfacet
 facet normal -0.000000e+00 -1.000000e+00  0.000000e+00
   outer loop
     vertex  1.500000e-02 -2.790541e-01  3.600000e-01
     vertex -8.250000e-02 -2.790541e-01  3.600000e-01
     vertex -8.250000e-02 -2.790541e-01  2.700000e-01
   endloop
 endfacet
 facet normal  0.000000e+00 -1.000000e+00  0.000000e+00
   outer loop
     vertex  1.500000e-02 -2.790541e-01 -1.708714e-17
     vertex -8.250000e-02 -2.790541e-01  2.700000e-01
     vertex -8.250000e-02 -2.790541e-01 -1.708714e-17
   endloop
 endfacet
 facet normal  0.000000e+00 -1.000000e+00  0.000000e+00
   outer loop
     vertex  1.500000e-02 -2.790541e-01 -1.708714e-17
     vertex  1.500000e-02 -2.790541e-01  3.600000e-01
     vertex -8.250000e-02 -2.790541e-01  2.700000e-01
   endloop
 endfacet
 facet normal -1.000000e+00  9.516197e-16  3.662194e-16
   outer loop
     vertex  1.500000e-02 -2.790541e-01  3.600000e-01
     vertex  1.500000e-02 -1.655409e-02  4.500000e-01
     vertex  1.500000e-02 -1.655409e-02  3.600000e-01
   endloop
 endfacet
 facet normal -1.000000e+00  1.017704e-15  1.734723e-16
   outer loop
     vertex  1.500000e-02 -2.790541e-01  3.600000e-01
     vertex  1.500000e-02 -2.790541e-01  4.500000e-01
     vertex  1.500000e-02 -1.655409e-02  4.500000e-01
   endloop
 endfacet
 facet normal  0.000000e+00  6.123234e-17 -1.000000e+00
   outer loop
     vertex  1.125000e-01 -1.655409e-02 -1.013646e-18
     vertex  1.125000e-01 -2.790541e-01 -1.708714e-17
     vertex  1.500000e-02 -2.790541e-01 -1.708714e-17
   endloop
 endfacet
 facet normal  0.000000e+00  6.123234e-17 -1.000000e+00
   outer loop
     vertex  1.125000e-01 -1.655409e-02 -1.013646e-18
     vertex  1.500000e-02 -2.790541e-01 -1.708714e-17
     vertex  1.500000e-02 -1.655409e-02 -1.013646e-18
   endloop
 endfacet
 facet normal  0.000000e+00  0.000000e+00  1.000000e+00
   outer loop
     vertex  1.125000e-01 -1.655409e-02  4.500000e-01
     vertex  1.500000e-02 -2.790541e-01  4.500000e-01
     vertex  1.125000e-01 -2.790541e-01  4.500000e-01
   endloop
 endfacet
 facet normal  0.000000e+00  0.000000e+00  1.000000e+00
   outer loop
     vertex  1.125000e-01 -1.655409e-02  4.500000e-01
     vertex  1.500000e-02 -1.655409e-02  4.500000e-01
     vertex  1.500000e-02 -2.790541e-01  4.500000e-01
   endloop
 endfacet
 facet normal -1.000000e+00  9.251859e-16  0.000000e+00
   outer loop
     vertex  1.125000e-01 -1.655409e-02  4.500000e-01
     vertex  1.125000e-01  2.834459e-01  7.500000e-01
     vertex  1.125000e-01  2.834459e-01  4.500000e-01
   endloop
 endfacet
 facet normal -1.000000e+00  9.251859e-16 -1.176957e-31
   outer loop
     vertex  1.125000e-01 -1.655409e-02  4.500000e-01
     vertex  1.125000e-01 -1.655409e-02  7.500000e-01
     vertex  1.125000e-01  2.834459e-01  7.500000e-01
   endloop
 endfacet
 facet normal  0.000000e+00  1.000000e+00  0.000000e+00
   outer loop
     vertex  1.125000e-01  2.834459e-01  4.500000e-01
     vertex  1.125000e-01  2.834459e-01  7.500000e-01
     vertex  3.750000e-01  2.834459e-01  7.500000e-01
   endloop
 endfacet
 facet normal  0.000000e+00  1.000000e+00 -0.000000e+00
   outer loop
     vertex  3.750000e-01  2.834459e-01  1.735606e-17
     vertex  1.125000e-01  2.834459e-01  4.500000e-01
     vertex  3.750000e-01  2.834459e-01  7.500000e-01
   endloop
 endfacet
 facet normal  0.000000e+00  1.000000e+00  0.000000e+00
   outer loop
     vertex  1.125000e-01  2.834459e-01  1.735606e-17
     vertex  1.125000e-01  2.834459e-01  4.500000e-01
     vertex  3.750000e-01  2.834459e-01  1.735606e-17
   endloop
 endfacet
 facet normal  0.000000e+00  6.123234e-17 -1.000000e+00
   outer loop
     vertex -3.750000e-01  2.834459e-01  1.735606e-17
     vertex -2.775000e-01 -1.655409e-02 -1.013646e-18
     vertex -3.750000e-01 -1.655409e-02 -1.013646e-18
   endloop
 endfacet
 facet normal  0.000000e+00  6.123234e-17 -1.000000e+00
   outer loop
     vertex -3.750000e-01  2.834459e-01  1.735606e-17
     vertex -1.800000e-01 -1.655409e-02 -1.013646e-18
     vertex -2.775000e-01 -1.655409e-02 -1.013646e-18
   endloop
 endfacet
 facet normal  0.000000e+00  6.123234e-17 -1.000000e+00
   outer loop
     vertex -3.750000e-01  2.834459e-01  1.735606e-17
     vertex -8.250000e-02 -1.655409e-02 -1.013646e-18
     vertex -1.800000e-01 -1.655409e-02 -1.013646e-18
   endloop
 endfacet
 facet normal  0.000000e+00  6.123234e-17 -1.000000e+00
   outer loop
     vertex  1.125000e-01  2.834459e-01  1.735606e-17
     vertex  1.500000e-02 -1.655409e-02 -1.013646e-18
     vertex -8.250000e-02 -1.655409e-02 -1.013646e-18
   endloop
 endfacet
 facet normal  0.000000e+00  6.123234e-17 -1.000000e+00
   outer loop
     vertex  1.125000e-01  2.834459e-01  1.735606e-17
     vertex  1.125000e-01 -1.655409e-02 -1.013646e-18
     vertex  1.500000e-02 -1.655409e-02 -1.013646e-18
   endloop
 endfacet
 facet normal  0.000000e+00  6.123234e-17 -1.000000e+00
   outer loop
     vertex  1.125000e-01  2.834459e-01  1.735606e-17
     vertex -8.250000e-02 -1.655409e-02 -1.013646e-18
     vertex -3.750000e-01  2.834459e-01  1.735606e-17
   endloop
 endfacet
 facet normal -0.000000e+00 -1.000000e+00  0.000000e+00
   outer loop
     vertex -8.250000e-02 -2.790541e-01  2.700000e-01
     vertex -1.800000e-01 -2.790541e-01  2.700000e-01
     vertex -1.800000e-01 -2.790541e-01  1.800000e-01
   endloop
 endfacet
 facet normal  0.000000e+00 -1.000000e+00  0.000000e+00
   outer loop
     vertex -8.250000e-02 -2.790541e-01 -1.708714e-17
     vertex -1.800000e-01 -2.790541e-01  1.800000e-01
     vertex -1.800000e-01 -2.790541e-01 -1.708714e-17
   endloop
 endfacet
 facet normal  0.000000e+00 -1.000000e+00  0.000000e+00
   outer loop
     vertex -8.250000e-02 -2.790541e-01 -1.708714e-17
     vertex -8.250000e-02 -2.790541e-01  2.700000e-01
     vertex -1.800000e-01 -2.790541e-01  1.800000e-01
   endloop
 endfacet
 facet normal -1.000000e+00  9.516197e-16  1.541976e-16
   outer loop
     vertex -8.250000e-02 -2.790541e-01  2.700000e-01
     vertex -8.250000e-02 -1.655409e-02  3.600000e-01
     vertex -8.250000e-02 -1.655409e-02  2.700000e-01
   endloop
 endfacet
 facet normal -1.000000e+00  9.516197e-16  1.541976e-16
   outer loop
     vertex -8.250000e-02 -2.790541e-01  2.700000e-01
     vertex -8.250000e-02 -2.790541e-01  3.600000e-01
     vertex -8.250000e-02 -1.655409e-02  3.600000e-01
   endloop
 endfacet
 facet normal  0.000000e+00  6.123234e-17 -1.000000e+00
   outer loop
     vertex  1.500000e-02 -1.655409e-02 -1.013646e-18
     vertex  1.500000e-02 -2.790541e-01 -1.708714e-17
     vertex -8.250000e-02 -2.790541e-01 -1.708714e-17
   endloop
 endfacet
 facet normal  0.000000e+00  6.123234e-17 -1.000000e+00
   outer loop
     vertex  1.500000e-02 -1.655409e-02 -1.013646e-18
     vertex -8.250000e-02 -2.790541e-01 -1.708714e-17
     vertex -8.250000e-02 -1.655409e-02 -1.013646e-18
   endloop
 endfacet
 facet normal  0.000000e+00  0.000000e+00  1.000000e+00
   outer loop
     vertex  1.500000e-02 -1.655409e-02  3.600000e-01
     vertex -8.250000e-02 -2.790541e-01  3.600000e-01
     vertex  1.500000e-02 -2.790541e-01  3.600000e-01
   endloop
 endfacet
 facet normal  0.000000e+00  0.000000e+00  1.000000e+00
   outer loop
     vertex  1.500000e-02 -1.655409e-02  3.600000e-01
     vertex -8.250000e-02 -1.655409e-02  3.600000e-01
     vertex -8.250000e-02 -2.790541e-01  3.600000e-01
   endloop
 endfacet
 facet normal  0.000000e+00 -1.000000e+00  3.469447e-16
   outer loop
     vertex  1.500000e-02 -1.655409e-02  3.600000e-01
     vertex -8.250000e-02 -1.655409e-02  4.500000e-01
     vertex -8.250000e-02 -1.655409e-02  3.600000e-01
   endloop
 endfacet
 facet normal -1.423363e-16 -1.000000e+00  1.927471e-16
   outer loop
     vertex  1.500000e-02 -1.655409e-02  3.600000e-01
     vertex  1.500000e-02 -1.655409e-02  4.500000e-01
     vertex -8.250000e-02 -1.655409e-02  4.500000e-01
   endloop
 endfacet
 facet normal  0.000000e+00  0.000000e+00  1.000000e+00
   outer loop
     vertex -2.775000e-01 -1.655409e-02  4.500000e-01
     vertex -3.375000e-01  2.094591e-02  4.500000e-01
     vertex -3.750000e-01 -1.655409e-02  4.500000e-01
   endloop
 endfacet
 facet normal  0.000000e+00  0.000000e+00  1.000000e+00
   outer loop
     vertex -1.800000e-01 -1.655409e-02  4.500000e-01
     vertex -3.375000e-01  2.094591e-02  4.500000e-01
     vertex -2.775000e-01 -1.655409e-02  4.500000e-01
   endloop
 endfacet
 facet normal  0.000000e+00  0.000000e+00  1.000000e+00
   outer loop
     vertex -3.375000e-01  2.459459e-01  4.500000e-01
     vertex -3.750000e-01  2.834459e-01  4.500000e-01
     vertex -3.750000e-01 -1.655409e-02  4.500000e-01
   endloop
 endfacet
 facet normal  0.000000e+00  0.000000e+00  1.000000e+00
   outer loop
     vertex -3.375000e-01  2.459459e-01  4.500000e-01
     vertex -3.750000e-01 -1.655409e-02  4.500000e-01
     vertex -3.375000e-01  2.094591e-02  4.500000e-01
   endloop
 endfacet
 facet normal  0.000000e+00  0.000000e+00  1.000000e+00
   outer loop
     vertex  0.000000e+00  2.094591e-02  4.500000e-01
     vertex -8.250000e-02 -1.655409e-02  4.500000e-01
     vertex  1.500000e-02 -1.655409e-02  4.500000e-01
   endloop
 endfacet
 facet normal  0.000000e+00  0.000000e+00  1.000000e+00
   outer loop
     vertex  1.125000e-01 -1.655409e-02  4.500000e-01
     vertex  0.000000e+00  2.094591e-02  4.500000e-01
     vertex  1.500000e-02 -1.655409e-02  4.500000e-01
   endloop
 endfacet
 facet normal  0.000000e+00  0.000000e+00  1.000000e+00
   outer loop
     vertex  2.220446e-16  2.459459e-01  4.500000e-01
     vertex -3.750000e-01  2.834459e-01  4.500000e-01
     vertex -3.375000e-01  2.459459e-01  4.500000e-01
   endloop
 endfacet
 facet normal  0.000000e+00  0.000000e+00  1.000000e+00
   outer loop
     vertex  1.125000e-01  2.834459e-01  4.500000e-01
     vertex  2.220446e-16  2.459459e-01  4.500000e-01
     vertex  0.000000e+00  2.094591e-02  4.500000e-01
   endloop
 endfacet
 facet normal  0.000000e+00  0.000000e+00  1.000000e+00
   outer loop
     vertex  1.125000e-01  2.834459e-01  4.500000e-01
     vertex  0.000000e+00  2.094591e-02  4.500000e-01
     vertex  1.125000e-01 -1.655409e-02  4.500000e-01
   endloop
 endfacet
 facet normal  0.000000e+00  0.000000e+00  1.000000e+00
   outer loop
     vertex  1.125000e-01  2.834459e-01  4.500000e-01
     vertex -3.750000e-01  2.834459e-01  4.500000e-01
     vertex  2.220446e-16  2.459459e-01  4.500000e-01
   endloop
 endfacet
 facet normal  0.000000e+00  0.000000e+00  1.000000e+00
   outer loop
     vertex  0.000000e+00  2.094591e-02  4.500000e-01
     vertex -3.375000e-01  2.094591e-02  4.500000e-01
     vertex -1.800000e-01 -1.655409e-02  4.500000e-01
   endloop
 endfacet
 facet normal  0.000000e+00  0.000000e+00  1.000000e+00
   outer loop
     vertex  0.000000e+00  2.094591e-02  4.500000e-01
     vertex -1.800000e-01 -1.655409e-02  4.500000e-01
     vertex -8.250000e-02 -1.655409e-02  4.500000e-01
   endloop
 endfacet
 facet normal  0.000000e+00  1.000000e+00  0.000000e+00
   outer loop
     vertex -3.750000e-01  2.834459e-01  1.735606e-17
     vertex  1.125000e-01  2.834459e-01  4.500000e-01
     vertex  1.125000e-01  2.834459e-01  1.735606e-17
   endloop
 endfacet
 facet normal  0.000000e+00  1.000000e+00  0.000000e+00
   outer loop
     vertex -3.750000e-01  2.834459e-01  1.735606e-17
     vertex -3.750000e-01  2.834459e-01  4.500000e-01
     vertex  1.125000e-01  2.834459e-01  4.500000e-01
   endloop
 endfacet
 facet normal  0.000000e+00  6.123234e-17 -1.000000e+00
   outer loop
     vertex -2.775000e-01 -1.655409e-02 -1.013646e-18
     vertex -2.775000e-01 -2.790541e-01 -1.708714e-17
     vertex -3.750000e-01 -2.790541e-01 -1.708714e-17
   endloop
 endfacet
 facet normal  0.000000e+00  6.123234e-17 -1.000000e+00
   outer loop
     vertex -2.775000e-01 -1.655409e-02 -1.013646e-18
     vertex -3.750000e-01 -2.790541e-01 -1.708714e-17
     vertex -3.750000e-01 -1.655409e-02 -1.013646e-18
   endloop
 endfacet
 facet normal  0.000000e+00  6.123234e-17 -1.000000e+00
   outer loop
     vertex -1.800000e-01 -1.655409e-02 -1.013646e-18
     vertex -1.800000e-01 -2.790541e-01 -1.708714e-17
     vertex -2.775000e-01 -2.790541e-01 -1.708714e-17
   endloop
 endfacet
 facet normal  0.000000e+00  6.123234e-17 -1.000000e+00
   outer loop
     vertex -1.800000e-01 -1.655409e-02 -1.013646e-18
     vertex -2.775000e-01 -2.790541e-01 -1.708714e-17
     vertex -2.775000e-01 -1.655409e-02 -1.013646e-18
   endloop
 endfacet
 facet normal  0.000000e+00  6.123234e-17 -1.000000e+00
   outer loop
     vertex -8.250000e-02 -1.655409e-02 -1.013646e-18
     vertex -8.250000e-02 -2.790541e-01 -1.708714e-17
     vertex -1.800000e-01 -2.790541e-01 -1.708714e-17
   endloop
 endfacet
 facet normal  0.000000e+00  6.123234e-17 -1.000000e+00
   outer loop
     vertex -8.250000e-02 -1.655409e-02 -1.013646e-18
     vertex -1.800000e-01 -2.790541e-01 -1.708714e-17
     vertex -1.800000e-01 -1.655409e-02 -1.013646e-18
   endloop
 endfacet
 facet normal -1.000000e+00  1.110223e-15  0.000000e+00
   outer loop
     vertex -3.750000e-01 -1.655409e-02  9.000000e-02
     vertex -3.750000e-01  2.834459e-01  4.500000e-01
     vertex -3.750000e-01  2.834459e-01  1.735606e-17
   endloop
 endfacet
 facet normal -1.000000e+00  9.251859e-16  1.541976e-16
   outer loop
     vertex -3.750000e-01 -1.655409e-02  9.000000e-02
     vertex -3.750000e-01 -1.655409e-02  4.500000e-01
     vertex -3.750000e-01  2.834459e-01  4.500000e-01
   endloop
 endfacet
 facet normal -1.000000e+00  7.401487e-16 -1.233581e-15
   outer loop
     vertex -3.750000e-01 -1.655409e-02  4.500000e-02
     vertex -3.750000e-01 -1.655409e-02  9.000000e-02
     vertex -3.750000e-01  2.834459e-01  1.735606e-17
   endloop
 endfacet
 facet normal -1.000000e+00  9.251859e-16  3.566537e-31
   outer loop
     vertex -3.750000e-01 -1.655409e-02 -1.013646e-18
     vertex -3.750000e-01 -1.655409e-02  4.500000e-02
     vertex -3.750000e-01  2.834459e-01  1.735606e-17
   endloop
 endfacet
 facet normal -0.000000e+00 -1.000000e+00  0.000000e+00
   outer loop
     vertex -1.800000e-01 -2.790541e-01  1.800000e-01
     vertex -2.775000e-01 -2.790541e-01  1.800000e-01
     vertex -2.775000e-01 -2.790541e-01  9.000000e-02
   endloop
 endfacet
 facet normal  0.000000e+00 -1.000000e+00  0.000000e+00
   outer loop
     vertex -1.800000e-01 -2.790541e-01 -1.708714e-17
     vertex -2.775000e-01 -2.790541e-01  9.000000e-02
     vertex -2.775000e-01 -2.790541e-01 -1.708714e-17
   endloop
 endfacet
 facet normal  0.000000e+00 -1.000000e+00  0.000000e+00
   outer loop
     vertex -1.800000e-01 -2.790541e-01 -1.708714e-17
     vertex -1.800000e-01 -2.790541e-01  1.800000e-01
     vertex -2.775000e-01 -2.790541e-01  9.000000e-02
   endloop
 endfacet
 facet normal -1.000000e+00  1.057355e-15 -3.083953e-16
   outer loop
     vertex -1.800000e-01 -2.790541e-01  1.800000e-01
     vertex -1.800000e-01 -1.655409e-02  2.700000e-01
     vertex -1.800000e-01 -1.655409e-02  1.800000e-01
   endloop
 endfacet
 facet normal -1.000000e+00  9.516197e-16  0.000000e+00
   outer loop
     vertex -1.800000e-01 -2.790541e-01  1.800000e-01
     vertex -1.800000e-01 -2.790541e-01  2.700000e-01
     vertex -1.800000e-01 -1.655409e-02  2.700000e-01
   endloop
 endfacet
 facet normal  0.000000e+00  0.000000e+00  1.000000e+00
   outer loop
     vertex -8.250000e-02 -1.655409e-02  2.700000e-01
     vertex -1.800000e-01 -2.790541e-01  2.700000e-01
     vertex -8.250000e-02 -2.790541e-01  2.700000e-01
   endloop
 endfacet
 facet normal  0.000000e+00  0.000000e+00  1.000000e+00
   outer loop
     vertex -8.250000e-02 -1.655409e-02  2.700000e-01
     vertex -1.800000e-01 -1.655409e-02  2.700000e-01
     vertex -1.800000e-01 -2.790541e-01  2.700000e-01
   endloop
 endfacet
 facet normal -1.601283e-16 -1.000000e+00  1.734723e-16
   outer loop
     vertex -8.250000e-02 -1.655409e-02  3.600000e-01
     vertex -1.800000e-01 -1.655409e-02  4.500000e-01
     vertex -1.800000e-01 -1.655409e-02  2.700000e-01
   endloop
 endfacet
 facet normal  0.000000e+00 -1.000000e+00  3.469447e-16
   outer loop
     vertex -8.250000e-02 -1.655409e-02  3.600000e-01
     vertex -8.250000e-02 -1.655409e-02  4.500000e-01
     vertex -1.800000e-01 -1.655409e-02  4.500000e-01
   endloop
 endfacet
 facet normal  0.000000e+00 -1.000000e+00  0.000000e+00
   outer loop
     vertex -8.250000e-02 -1.655409e-02  2.700000e-01
     vertex -8.250000e-02 -1.655409e-02  3.600000e-01
     vertex -1.800000e-01 -1.655409e-02  2.700000e-01
   endloop
 endfacet
 facet normal -8.006416e-17 -1.000000e+00  8.673617e-17
   outer loop
     vertex -2.775000e-01 -1.655409e-02  1.800000e-01
     vertex -3.750000e-01 -1.655409e-02  4.500000e-01
     vertex -3.750000e-01 -1.655409e-02  9.000000e-02
   endloop
 endfacet
 facet normal  0.000000e+00 -1.000000e+00  1.156482e-16
   outer loop
     vertex -2.775000e-01 -1.655409e-02  1.800000e-01
     vertex -2.775000e-01 -1.655409e-02  4.500000e-01
     vertex -3.750000e-01 -1.655409e-02  4.500000e-01
   endloop
 endfacet
 facet normal  0.000000e+00 -1.000000e+00  0.000000e+00
   outer loop
     vertex -2.775000e-01 -1.655409e-02  9.000000e-02
     vertex -2.775000e-01 -1.655409e-02  1.800000e-01
     vertex -3.750000e-01 -1.655409e-02  9.000000e-02
   endloop
 endfacet
 facet normal -1.067522e-16 -1.000000e+00  1.156482e-16
   outer loop
     vertex -1.800000e-01 -1.655409e-02  2.700000e-01
     vertex -2.775000e-01 -1.655409e-02  4.500000e-01
     vertex -2.775000e-01 -1.655409e-02  1.800000e-01
   endloop
 endfacet
 facet normal  0.000000e+00 -1.000000e+00  1.734723e-16
   outer loop
     vertex -1.800000e-01 -1.655409e-02  2.700000e-01
     vertex -1.800000e-01 -1.655409e-02  4.500000e-01
     vertex -2.775000e-01 -1.655409e-02  4.500000e-01
   endloop
 endfacet
 facet normal  0.000000e+00 -1.000000e+00  0.000000e+00
   outer loop
     vertex -1.800000e-01 -1.655409e-02  1.800000e-01
     vertex -1.800000e-01 -1.655409e-02  2.700000e-01
     vertex -2.775000e-01 -1.655409e-02  1.800000e-01
   endloop
 endfacet
 facet normal  0.000000e+00  1.000000e+00  0.000000e+00
   outer loop
     vertex  0.000000e+00  2.094591e-02  4.500000e-01
     vertex -3.375000e-01  2.094591e-02  7.500000e-02
     vertex -3.375000e-01  2.094591e-02  4.500000e-01
   endloop
 endfacet
 facet normal  0.000000e+00  1.000000e+00  0.000000e+00
   outer loop
     vertex  0.000000e+00  2.094591e-02  4.500000e-01
     vertex  0.000000e+00  2.094591e-02  7.500000e-02
     vertex -3.375000e-01  2.094591e-02  7.500000e-02
   endloop
 endfacet
 facet normal -1.000000e+00  9.868649e-16  0.000000e+00
   outer loop
     vertex  2.220446e-16  2.459459e-01  4.500000e-01
     vertex  0.000000e+00  2.094591e-02  7.500000e-02
     vertex  0.000000e+00  2.094591e-02  4.500000e-01
   endloop
 endfacet
 facet normal -1.000000e+00  9.868649e-16  0.000000e+00
   outer loop
     vertex  2.220446e-16  2.459459e-01  4.500000e-01
     vertex  2.220446e-16  2.459459e-01  7.500000e-02
     vertex  0.000000e+00  2.094591e-02  7.500000e-02
   endloop
 endfacet
 facet normal  0.000000e+00 -1.000000e+00  0.000000e+00
   outer loop
     vertex -3.375000e-01  2.459459e-01  4.500000e-01
     vertex  2.220446e-16  2.459459e-01  7.500000e-02
     vertex  2.220446e-16  2.459459e-01  4.500000e-01
   endloop
 endfacet
 facet normal  0.000000e+00 -1.000000e+00  0.000000e+00
   outer loop
     vertex -3.375000e-01  2.459459e-01  4.500000e-01
     vertex -3.375000e-01  2.459459e-01  7.500000e-02
     vertex  2.220446e-16  2.459459e-01  7.500000e-02
   endloop
 endfacet
 facet normal  1.000000e+00 -9.868649e-16  0.000000e+00
   outer loop
     vertex -3.375000e-01  2.094591e-02  4.500000e-01
     vertex -3.375000e-01  2.459459e-01  7.500000e-02
     vertex -3.375000e-01  2.459459e-01  4.500000e-01
   endloop
 endfacet
 facet normal  1.000000e+00 -9.868649e-16  0.000000e+00
   outer loop
     vertex -3.375000e-01  2.094591e-02  4.500000e-01
     vertex -3.375000e-01  2.094591e-02  7.500000e-02
     vertex -3.375000e-01  2.459459e-01  7.500000e-02
   endloop
 endfacet
 facet normal -0.000000e+00 -1.000000e+00  0.000000e+00
   outer loop
     vertex -2.775000e-01 -2.790541e-01  9.000000e-02
     vertex -3.750000e-01 -2.790541e-01  9.000000e-02
     vertex -3.750000e-01 -2.790541e-01  4.500000e-02
   endloop
 endfacet
 facet normal  0.000000e+00 -1.000000e+00  0.000000e+00
   outer loop
     vertex -2.775000e-01 -2.790541e-01 -1.708714e-17
     vertex -3.750000e-01 -2.790541e-01  4.500000e-02
     vertex -3.750000e-01 -2.790541e-01 -1.708714e-17
   endloop
 endfacet
 facet normal  0.000000e+00 -1.000000e+00  0.000000e+00
   outer loop
     vertex -2.775000e-01 -2.790541e-01 -1.708714e-17
     vertex -2.775000e-01 -2.790541e-01  9.000000e-02
     vertex -3.750000e-01 -2.790541e-01  4.500000e-02
   endloop
 endfacet
 facet normal  0.000000e+00  6.123234e-17 -1.000000e+00
   outer loop
     vertex -3.750000e-01 -1.655409e-02 -1.013646e-18
     vertex -3.750000e-01 -2.790541e-01 -1.708714e-17
     vertex -4.725000e-01 -2.790541e-01 -1.708714e-17
   endloop
 endfacet
 facet normal -1.089448e-32  6.123234e-17 -1.000000e+00
   outer loop
     vertex -3.750000e-01 -1.655409e-02 -1.013646e-18
     vertex -4.725000e-01 -2.790541e-01 -1.708714e-17
     vertex -4.725000e-01 -1.655409e-02 -1.013646e-18
   endloop
 endfacet
 facet normal -1.779204e-16  1.000000e+00  3.854941e-16
   outer loop
     vertex -4.725000e-01 -1.655409e-02 -1.013646e-18
     vertex -3.750000e-01 -1.655409e-02  4.500000e-02
     vertex -3.750000e-01 -1.655409e-02 -1.013646e-18
   endloop
 endfacet
 facet normal  0.000000e+00  1.000000e+00  0.000000e+00
   outer loop
     vertex -4.725000e-01 -1.655409e-02 -1.013646e-18
     vertex -4.725000e-01 -1.655409e-02  4.500000e-02
     vertex -3.750000e-01 -1.655409e-02  4.500000e-02
   endloop
 endfacet
 facet normal -1.000000e+00  1.057355e-15 -1.233581e-15
   outer loop
     vertex -3.750000e-01 -2.790541e-01  4.500000e-02
     vertex -3.750000e-01 -1.655409e-02  9.000000e-02
     vertex -3.750000e-01 -1.655409e-02  4.500000e-02
   endloop
 endfacet
 facet normal -1.000000e+00  8.458842e-16  0.000000e+00
   outer loop
     vertex -3.750000e-01 -2.790541e-01  4.500000e-02
     vertex -3.750000e-01 -2.790541e-01  9.000000e-02
     vertex -3.750000e-01 -1.655409e-02  9.000000e-02
   endloop
 endfacet
 facet normal -1.000000e+00  1.057355e-15  0.000000e+00
   outer loop
     vertex -2.775000e-01 -2.790541e-01  9.000000e-02
     vertex -2.775000e-01 -1.655409e-02  1.800000e-01
     vertex -2.775000e-01 -1.655409e-02  9.000000e-02
   endloop
 endfacet
 facet normal -1.000000e+00  8.458842e-16  6.167906e-16
   outer loop
     vertex -2.775000e-01 -2.790541e-01  9.000000e-02
     vertex -2.775000e-01 -2.790541e-01  1.800000e-01
     vertex -2.775000e-01 -1.655409e-02  1.800000e-01
   endloop
 endfacet
 facet normal  0.000000e+00 -1.057355e-16  1.000000e+00
   outer loop
     vertex -1.800000e-01 -1.655409e-02  1.800000e-01
     vertex -2.775000e-01 -2.790541e-01  1.800000e-01
     vertex -1.800000e-01 -2.790541e-01  1.800000e-01
   endloop
 endfacet
 facet normal  0.000000e+00 -1.057355e-16  1.000000e+00
   outer loop
     vertex -1.800000e-01 -1.655409e-02  1.800000e-01
     vertex -2.775000e-01 -1.655409e-02  1.800000e-01
     vertex -2.775000e-01 -2.790541e-01  1.800000e-01
   endloop
 endfacet
 facet normal  0.000000e+00 -5.286776e-17  1.000000e+00
   outer loop
     vertex -2.775000e-01 -1.655409e-02  9.000000e-02
     vertex -3.750000e-01 -2.790541e-01  9.000000e-02
     vertex -2.775000e-01 -2.790541e-01  9.000000e-02
   endloop
 endfacet
 facet normal  0.000000e+00 -5.286776e-17  1.000000e+00
   outer loop
     vertex -2.775000e-01 -1.655409e-02  9.000000e-02
     vertex -3.750000e-01 -1.655409e-02  9.000000e-02
     vertex -3.750000e-01 -2.790541e-01  9.000000e-02
   endloop
 endfacet
 facet normal  0.000000e+00  0.000000e+00  1.000000e+00
   outer loop
     vertex  2.220446e-16  2.459459e-01  7.500000e-02
     vertex -3.375000e-01  2.094591e-02  7.500000e-02
     vertex  0.000000e+00  2.094591e-02  7.500000e-02
   endloop
 endfacet
 facet normal  0.000000e+00  0.000000e+00  1.000000e+00
   outer loop
     vertex  2.220446e-16  2.459459e-01  7.500000e-02
     vertex -3.375000e-01  2.459459e-01  7.500000e-02
     vertex -3.375000e-01  2.094591e-02  7.500000e-02
   endloop
 endfacet
 facet normal  0.000000e+00 -1.000000e+00  0.000000e+00
   outer loop
     vertex -3.750000e-01 -2.790541e-01 -1.708714e-17
     vertex -4.725000e-01 -2.790541e-01  4.500000e-02
     vertex -4.725000e-01 -2.790541e-01 -1.708714e-17
   endloop
 endfacet
 facet normal  0.000000e+00 -1.000000e+00  0.000000e+00
   outer loop
     vertex -3.750000e-01 -2.790541e-01 -1.708714e-17
     vertex -3.750000e-01 -2.790541e-01  4.500000e-02
     vertex -4.725000e-01 -2.790541e-01  4.500000e-02
   endloop
 endfacet
 facet normal -1.000000e+00  8.458842e-16  0.000000e+00
   outer loop
     vertex -4.725000e-01 -2.790541e-01 -1.708714e-17
     vertex -4.725000e-01 -1.655409e-02  4.500000e-02
     vertex -4.725000e-01 -1.655409e-02 -1.013646e-18
   endloop
 endfacet
 facet normal -1.000000e+00  8.458842e-16  0.000000e+00
   outer loop
     vertex -4.725000e-01 -2.790541e-01 -1.708714e-17
     vertex -4.725000e-01 -2.790541e-01  4.500000e-02
     vertex -4.725000e-01 -1.655409e-02  4.500000e-02
   endloop
 endfacet
 facet normal  0.000000e+00 -5.286776e-17  1.000000e+00
   outer loop
     vertex -3.750000e-01 -1.655409e-02  4.500000e-02
     vertex -4.725000e-01 -2.790541e-01  4.500000e-02
     vertex -3.750000e-01 -2.790541e-01  4.500000e-02
   endloop
 endfacet
 facet normal  0.000000e+00 -5.286776e-17  1.000000e+00
   outer loop
     vertex -3.750000e-01 -1.655409e-02  4.500000e-02
     vertex -4.725000e-01 -1.655409e-02  4.500000e-02
     vertex -4.725000e-01 -2.790541e-01  4.500000e-02
   endloop
 endfacet
endsolid
